<?xml version="1.0" encoding="UTF-8" standalone="no"?>
<!-- Created with Inkscape (http://www.inkscape.org/) -->

<svg
   xmlns:dc="http://purl.org/dc/elements/1.1/"
   xmlns:cc="http://creativecommons.org/ns#"
   xmlns:rdf="http://www.w3.org/1999/02/22-rdf-syntax-ns#"
   xmlns:svg="http://www.w3.org/2000/svg"
   xmlns="http://www.w3.org/2000/svg"
   xmlns:xlink="http://www.w3.org/1999/xlink"
   xmlns:sodipodi="http://sodipodi.sourceforge.net/DTD/sodipodi-0.dtd"
   xmlns:inkscape="http://www.inkscape.org/namespaces/inkscape"
   width="379.73438mm"
   height="456.12683mm"
   viewBox="0 0 379.73439 456.12683"
   version="1.1"
   id="svg5134"
   inkscape:version="0.92.5 (2060ec1f9f, 2020-04-08)"
   sodipodi:docname="map.svg"
   inkscape:export-filename="/home/garykac/projects/github/valheim/map.png"
   inkscape:export-xdpi="150.0188"
   inkscape:export-ydpi="150.0188">
  <defs
     id="defs5128" />
  <sodipodi:namedview
     id="base"
     pagecolor="#ffffff"
     bordercolor="#666666"
     borderopacity="1.0"
     inkscape:pageopacity="0.0"
     inkscape:pageshadow="2"
     inkscape:zoom="0.54475659"
     inkscape:cx="821.99713"
     inkscape:cy="729.27335"
     inkscape:document-units="mm"
     inkscape:current-layer="layer9"
     showgrid="false"
     inkscape:snap-global="false"
     inkscape:window-width="3440"
     inkscape:window-height="1406"
     inkscape:window-x="0"
     inkscape:window-y="417"
     inkscape:window-maximized="1"
     fit-margin-top="0"
     fit-margin-left="0"
     fit-margin-right="0"
     fit-margin-bottom="0" />
  <metadata
     id="metadata5131">
    <rdf:RDF>
      <cc:Work
         rdf:about="">
        <dc:format>image/svg+xml</dc:format>
        <dc:type
           rdf:resource="http://purl.org/dc/dcmitype/StillImage" />
        <dc:title></dc:title>
      </cc:Work>
    </rdf:RDF>
  </metadata>
  <g
     inkscape:groupmode="layer"
     id="layer9"
     inkscape:label="Water"
     transform="translate(33.043755,19.883134)"
     style="display:inline">
    <rect
       transform="translate(82.192268,58.566649)"
       style="display:inline;opacity:1;fill:#def1fe;fill-opacity:1;stroke:none;stroke-width:1.5;stroke-miterlimit:4;stroke-dasharray:none;stroke-opacity:1;paint-order:markers fill stroke"
       id="rect940"
       width="379.73438"
       height="456.12683"
       x="-115.23602"
       y="-78.449783" />
  </g>
  <g
     inkscape:groupmode="layer"
     id="layer2"
     inkscape:label="garykac-1"
     style="display:none;opacity:0.45"
     sodipodi:insensitive="true"
     transform="translate(115.23602,78.449784)">
    <image
       sodipodi:absref="/home/garykac/projects/github/valheim/raw-maps/garykac/20210220154226_1.jpg"
       xlink:href="raw-maps/garykac/20210220154226_1.jpg"
       width="301.49072"
       height="166.37766"
       preserveAspectRatio="none"
       id="image5773"
       x="-59.156712"
       y="-16.671839" />
  </g>
  <g
     inkscape:groupmode="layer"
     id="layer3"
     inkscape:label="garykac-2"
     style="display:none"
     sodipodi:insensitive="true"
     transform="translate(115.23602,78.449784)">
    <image
       sodipodi:absref="/home/garykac/projects/github/valheim/raw-maps/garykac/20210223201731_1.jpg"
       xlink:href="raw-maps/garykac/20210223201731_1.jpg"
       width="340.85876"
       height="185.88258"
       preserveAspectRatio="none"
       id="image5784"
       x="-42.815762"
       y="192.62924" />
  </g>
  <g
     inkscape:groupmode="layer"
     id="layer7"
     inkscape:label="garykac-3-ref"
     style="display:none;opacity:0.48500001"
     sodipodi:insensitive="true"
     transform="translate(115.23602,78.449784)">
    <image
       sodipodi:absref="/home/garykac/projects/github/valheim/raw-maps/garykac/20210227092033_1.jpg"
       xlink:href="raw-maps/garykac/20210227092033_1.jpg"
       width="1013.8834"
       height="553.77289"
       preserveAspectRatio="none"
       id="image6011"
       x="-383.42633"
       y="-127.62053" />
  </g>
  <g
     inkscape:groupmode="layer"
     id="layer8"
     inkscape:label="garykac-4"
     style="display:none;opacity:0.71700003"
     sodipodi:insensitive="true"
     transform="translate(115.23602,78.449784)">
    <image
       sodipodi:absref="/home/garykac/projects/github/valheim/raw-maps/garykac/20210227092053_1.jpg"
       xlink:href="raw-maps/garykac/20210227092053_1.jpg"
       width="309.79425"
       height="169.2065"
       preserveAspectRatio="none"
       id="image6074"
       x="-45.841499"
       y="-0.60876149" />
  </g>
  <g
     inkscape:groupmode="layer"
     id="layer4"
     inkscape:label="sverre-1"
     style="display:none;opacity:0.57999998"
     sodipodi:insensitive="true"
     transform="translate(115.23602,78.449784)">
    <image
       sodipodi:absref="/home/garykac/projects/github/valheim/raw-maps/sverre/20210226202320_1.jpg"
       xlink:href="raw-maps/sverre/20210226202320_1.jpg"
       width="502.7084"
       height="282.79648"
       preserveAspectRatio="none"
       id="image5885"
       x="-214.83536"
       y="-63.026047" />
  </g>
  <g
     inkscape:groupmode="layer"
     id="layer5"
     inkscape:label="sverre-2"
     style="display:none"
     transform="translate(115.23602,78.449784)">
    <image
       sodipodi:absref="/home/garykac/projects/github/valheim/raw-maps/sverre/dcb1cf8c-fd47-410f-8bf6-577b0bc4dd91.png"
       xlink:href="raw-maps/sverre/dcb1cf8c-fd47-410f-8bf6-577b0bc4dd91.png"
       width="333.11041"
       height="213.25417"
       preserveAspectRatio="none"
       id="image5907"
       x="-497.54016"
       y="87.628525" />
  </g>
  <g
     inkscape:groupmode="layer"
     id="layer6"
     inkscape:label="sverre-3"
     style="display:none;opacity:0.58800001"
     sodipodi:insensitive="true"
     transform="translate(115.23602,78.449784)">
    <image
       sodipodi:absref="/home/garykac/projects/github/valheim/raw-maps/sverre/20210227000136_1.jpg"
       xlink:href="raw-maps/sverre/20210227000136_1.jpg"
       width="327.39328"
       height="184.17368"
       preserveAspectRatio="none"
       id="image5896"
       x="-182.4594"
       y="-83.867943" />
  </g>
  <g
     inkscape:label="Map"
     inkscape:groupmode="layer"
     id="layer1"
     style="display:inline"
     transform="translate(115.23602,78.449784)">
    <path
       style="opacity:1;vector-effect:none;fill:#e0e0e0;fill-opacity:1;stroke:#010101;stroke-width:0.79374999;stroke-linecap:butt;stroke-linejoin:miter;stroke-miterlimit:4;stroke-dasharray:none;stroke-dashoffset:0;stroke-opacity:1"
       d="m 87.490153,92.999403 2.661624,3.434355 -3.005058,3.863642 -1.54546,1.71718 -2.060612,-0.17172 -0.944446,-1.63132 0.171717,-2.318184 -1.888895,-0.171718 -0.858589,2.661622 -2.833341,0.0859 0.171718,2.66163 -1.459601,-0.17172 -1.888895,-1.8889 -2.489906,0.17172 -0.858586,1.54546 -2.318189,-1.0303 0.601011,-3.176783 -2.747483,0.257577 -0.772729,-1.631317 -2.232329,-1.459601 -3.520213,1.373741 -1.888895,-1.116164 0.686872,-1.54546 -1.803038,-0.944446 -2.060612,1.202023 -1.888892,-1.37374 -1.202026,0.944446 -3.348492,-0.171717 -1.803038,1.888894 -3.005058,-1.888894 -1.888895,-0.944449 0.429295,-3.005058 -0.601012,-1.888895 -1.803035,-5.15153 1.202024,-7.298002 0.343434,-4.207081 1.116166,-2.23233 -0.257577,-2.146471 1.803035,-1.202024 0.429294,-1.4596 2.575766,-0.343435 2.489907,-4.292943 1.116163,-2.489907 1.116166,-0.257574 -0.944449,-1.803038 3.090918,-2.060612 0.515155,-2.404046 5.924259,-3.520213 2.83334,-3.090918 2.919201,-1.631317 -0.08586,-1.116166 1.888895,0.429294 1.888892,-1.888892 0.08586,-2.060615 2.919201,-1.631317 0.858588,-0.257575 0.944447,-1.888895 2.318189,-1.202023 3.348495,-0.686872 -1.030306,-1.717177 -1.459601,-2.060612 1.202024,-0.601012 1.631317,2.146472 0.858589,-0.601011 0.171717,-0.686872 -1.54546,-1.888895 2.575766,-1.4596 2.404047,-1.974753 -0.858589,-0.944447 -0.08586,-1.717177 1.717177,-1.116165 1.459598,1.888895 2.318189,-0.77273 1.888895,0.858589 2.060612,-0.601012 0.257577,1.373741 2.833341,1.717177 0.171717,0.858588 2.23233,0.944447 2.661626,-0.08586 0.17171,1.803034 1.54546,-0.343434 2.31819,1.974754 3.26264,0.171718 4.72223,2.9192 2.74748,1.030306 2.31819,3.777787 4.20708,2.146472 3.43436,5.494965 2.06061,1.373743 0.17172,2.489904 1.80303,0.944448 1.80304,3.348496 3.26264,0.686868 1.11616,-0.429294 0.0859,0.858589 -1.88889,1.803037 1.4596,2.404047 0.42929,3.090918 -0.25758,1.803035 -3.09092,0.343434 h -2.40404 l 0.0859,1.459601 2.57576,-0.08586 2.23233,-0.343437 2.40405,1.888895 0.60101,3.005061 1.71718,3.520212 -1.03031,4.207081 0.77273,0.858589 0.17172,7.38386 2.40405,1.287883 -0.34344,4.464661 1.54546,0.601011 0.51515,2.575764 0.85859,0.343435 6.2677,6.525276 -0.51516,3.69193 1.03031,2.40405 6.69699,2.83334 -0.25758,4.20708 -1.88889,1.71718 1.4596,1.28788 2.66162,0.17172 2.48991,0.68687 -1.11617,2.14647 -0.0859,2.06061 1.37375,1.80304 2.83334,2.14647 0.77273,1.03031 -2.48991,1.20202 -0.51515,1.71718 1.37374,2.40404 -2.9192,1.20203 -0.85859,2.06061 0.60101,3.09092 -1.63132,1.63131 0.0859,1.28789 -2.57576,2.14647 -1.54546,1.80303 -3.09092,1.20203 -0.85859,1.54546 -3.69193,-0.34344 -0.85859,-1.80303 -1.0303,-3.09092 -1.37374,0.0859 1.11616,3.00506 v 2.31818 l -1.20202,1.20203 -1.37374,-0.77273 -3.3485,-1.20202 -1.63132,0.60101 -0.85859,-0.68687 -1.80303,-2.40405 1.11616,-1.54546 -2.74748,-0.77273 1.37374,-1.28788 0.94445,-2.48991 2.57577,0.34344 1.20202,-1.54546 -3.43435,-1.4596 -3.17678,-1.80304 -3.00506,-1.88889 -0.68687,-1.71718 3.26263,1.28788 0.60102,-0.51515 -0.94445,-1.63132 1.80303,-1.37374 0.51516,-2.40405 -3.17678,1.28789 -0.34343,-1.03031 2.40404,-2.48991 -2.83334,-1.11616 -0.60101,-3.09092 0.77273,-4.12122 1.28788,-2.31819 -2.06061,-3.26264 -3.60607,1.20203 h -2.06061 l -1.03031,0.77272 -1.8889,-1.71717 -4.72223,-0.77273 -3.00506,0.77273 -2.9192,-0.60101 1.28788,-1.8889 -1.20202,-0.25757 -0.60101,-2.06062 -2.23233,-0.51515 -1.03031,1.4596 -1.80303,-1.71718 0.17171,-7.212141 1.03031,-4.207084 0.42929,-4.292942 1.37374,-2.575766 3.00506,-0.772729 4.37881,0.08586 -1.4596,-1.030306 h -4.37881 l -3.60607,1.459601 -3.26263,1.717175 1.28788,1.717177 -0.85859,2.404047 0.34344,2.318189 -2.23233,-1.717175 -1.97476,0.944446 -1.631309,-1.202023 -2.404049,0.08586 0.429294,-1.373741 3.348494,-1.54546 -1.287882,-1.202023 -2.833341,1.202023 -1.116163,-1.717175 -0.17172,-1.888895 1.202026,-0.944446 0.257574,-1.116166 1.717178,-2.060612 -0.08586,-2.232329 1.373743,-1.030306 1.116155,-2.232329 -0.25757,-1.030306 0.94445,-3.348495 0.42929,-1.459601 -1.71718,-2.9192 0.0859,-2.661624 -0.858582,-1.4596 0.343434,-1.803035 -1.37374,-1.030306 -0.944446,-2.146472 -0.858589,-1.631318 -2.146472,0.171717 -2.146469,1.287883 -0.08586,2.23233 -1.287883,2.661623 1.54546,1.030306 -0.429294,2.747484 -0.601012,1.803035 v 1.54546 l -0.944449,2.318187 1.116166,1.373743 0.515152,1.37374 2.060612,-0.257577 1.974755,0.257577 0.944446,-0.257577 1.116166,1.202026 -0.686872,1.202023 -2.404046,-0.343437 -1.888895,0.515154 0.429294,1.287884 -2.661623,2.060612 -0.686872,1.631317 2.146472,0.601012 -0.257577,1.545458 -0.686872,2.232331 -2.747481,-0.515154 -1.4596,1.54546 0.429294,2.404047 z"
       id="path6077"
       inkscape:connector-curvature="0" />
    <path
       sodipodi:nodetypes="cccccccccccccccccccccccccccccccccccccccccccccccccccccccccccccccccccccccccccccccccccccccccccccccccccccccccccccccccccccccccccccccccccccccccccccccccccccccccccccccccccccccccccccccccccccccccccccccccccccccccccccccccccccccccccccccccccccccccccccccccccccccccccccccccccccccccccccccccccccccc"
       inkscape:connector-curvature="0"
       id="path1201"
       d="m 158.57809,288.13614 3.88552,-0.78925 1.0321,-0.60711 1.03209,0.72854 2.6713,0.72853 2.48917,-1.27494 1.0928,0.18214 1.27494,1.82134 2.48917,1.27494 0.66782,5.52473 2.30703,4.85691 -0.91067,5.28189 -2.6713,3.64268 -1.94276,3.52126 -1.94277,5.22118 -3.03556,4.61406 -1.45708,3.09628 -2.18561,1.76063 -2.12489,3.27841 -0.24285,1.76063 -2.06418,2.97486 -0.84996,4.85691 -3.03557,1.03209 -3.15699,0.48569 -2.85344,1.15352 -1.51778,2.42846 0.24284,2.85343 -0.48569,2.42845 -0.84996,1.82134 -1.51778,1.09281 -2.97486,-1.27494 -1.63919,-0.42503 -1.69992,0.72853 -2.24632,-0.54639 -2.00348,-0.60711 -0.24284,-1.94278 0.30355,-1.51779 2.36775,-1.0928 0.24284,-1.76062 -0.97138,-1.15353 -1.88205,0.48569 -0.97139,1.03209 -0.48569,-0.42497 1.09281,-1.33565 -0.36427,-1.5785 0.78925,-2.36773 -0.54641,-2.00348 h 1.0321 l 1.15352,-1.09281 -0.66784,-3.58195 -1.57849,0.84995 -0.24284,1.5785 -1.39636,-0.72856 0.66782,-1.88203 -1.21423,-0.24286 -0.42498,1.82134 0.48569,1.03211 -1.57849,0.30356 0.24285,-0.84998 -0.72854,-0.97136 0.12142,-1.21423 -2.06418,-0.66783 -0.66783,1.1535 0.78925,1.45709 -2.36774,-0.72853 -2.73202,-0.30356 -0.84995,0.91067 -1.76063,-0.0607 -1.69992,1.09281 -1.27494,0.0607 -0.48569,1.15353 v 2.42845 l -0.84996,0.84995 -2.42846,-0.0607 -1.76063,1.51778 -0.12142,1.69992 -1.0928,1.6392 -4.43193,1.21423 -2.18561,-1.33565 -1.76063,0.18214 -2.42846,0.78925 -2.853436,-0.91069 -2.185609,-1.57848 -0.182134,-1.5785 -0.303556,-1.69993 -0.485691,-2.61059 -0.789247,-2.36773 -0.303559,-2.12489 0.546405,-2.18562 1.578493,1.45706 -0.789247,-3.64268 -1.639207,-3.52126 -0.546402,-2.12489 0.06071,-1.69992 1.517784,-0.42498 0.485691,-0.72853 h -1.457074 l -0.667824,-1.03208 0.607113,-2.36776 0.06071,-2.36773 -0.910669,-2.67131 0.607113,-1.57851 1.153517,-2.42845 2.367743,-0.54639 1.821341,-2.00348 2.124898,-1.76061 2.124897,-2.00348 2.24632,-1.09281 0.60711,-1.6392 1.88205,-0.78925 1.69992,-1.94278 0.97138,0.48569 1.0321,0.54642 0.18213,-1.09281 0.24285,-2.24631 -0.66783,-2.0642 -0.36427,-2.67131 -1.6392,0.48569 -1.0321,-0.84995 0.97138,-1.69992 -0.30355,-0.97139 -2.42846,-0.91067 -1.82134,-2.61059 -1.94276,-0.42497 -1.032091,0.0607 -2.428455,-2.00348 -0.789249,0.18214 0.303559,0.54639 -0.728538,0.78925 -2.307032,-1.15353 -1.821341,0.24286 v -1.6392 l -0.91067,-0.60711 -1.942764,-0.36428 -2.367743,-1.6392 -1.335651,1.09281 -1.214225,-0.0607 -0.303557,-0.91067 -1.457074,0.12142 -1.092803,-0.60711 -1.092806,0.54641 -1.274939,-0.78925 -0.546402,0.72853 -2.124898,-0.48569 -0.121422,-1.76062 -1.639208,-1.15353 c 0,0 -1.153514,0.60711 -1.39636,0.78925 -0.242845,0.18214 0.182134,1.1535 0.182134,1.1535 l 0.06071,1.15353 -2.064187,-0.72853 -1.821341,0.78926 -0.849958,-0.84998 0.546401,-2.61059 c 0,0 -1.092806,-2.18562 -1.214228,-2.54987 -0.121423,-0.36428 0.910672,-1.15353 0.910672,-1.15353 l -0.728538,-1.82134 -2.732011,0.18214 -0.546402,0.84998 0.06071,0.91067 1.092803,0.72853 1.153517,0.97136 -0.546402,1.03211 -1.882052,-0.24286 -1.335651,-0.72853 -0.91067,1.21423 0.182134,1.09281 -1.153517,0.60711 -0.303557,1.76062 -1.578493,1.33567 -2.064187,-0.12142 -0.546404,1.51778 0.910672,0.97137 1.032092,1.94278 -1.214226,0.72853 -0.303556,-1.33564 -1.214229,-0.84998 -2.671299,-1.33564 -1.153517,-1.21423 -0.91067,0.91067 -1.942764,0.42498 -0.121422,-1.45706 -0.910672,-1.03212 -0.728536,1.15353 0.971384,2.91415 0.97138,2.48915 -2.489165,-1.21423 -3.278415,-2.7927 -7.042518,-2.79273 -6.010426,-2.30704 2.246321,-2.42845 0.971383,-1.21422 v -2.67132 l -2.124898,-0.12141 -0.910672,-0.72853 -0.364268,-1.21423 -1.274937,0.60711 -1.335651,-0.54641 -0.06071,-1.69991 1.639207,-0.36427 0.728536,-1.0928 -0.789247,-0.72854 0.182134,-1.69992 1.214226,-0.60711 1.032094,-1.39637 -0.364267,-2.12489 0.182134,-3.27842 1.76063,-0.5464 1.699916,-0.84996 0.728538,-1.69991 1.153514,-0.54641 0.303557,-1.21422 0.789249,-1.76063 2.246321,-0.0607 0.48569,-1.94276 1.092803,-0.5464 0.485693,-0.97138 -1.76063,-0.60712 -0.06071,-2.54987 0.971381,-1.09281 1.517784,0.36427 1.578497,-0.0607 0.607113,-0.78925 1.882052,-1.57848 1.396362,1.88204 1.396361,1.33565 0.121423,1.0928 -0.607114,1.27494 -1.457072,0.24285 -0.546403,0.60711 2.367744,1.39636 0.485691,1.33565 1.457072,0.91067 2.307032,1.0321 -0.485691,0.60711 -2.124897,0.66783 0.424979,1.94276 0.242846,2.24632 0.971381,0.42498 1.092805,-0.42498 1.882052,0.24285 c 0,0 1.214228,1.15351 1.396362,1.39636 0.182134,0.24284 2.6713,0.5464 2.6713,0.5464 l 2.003475,-0.0607 2.003475,-0.72854 16.331357,-0.97139 2.246321,0.24285 2.003475,-0.12143 2.185609,-0.97138 2.974857,0.0607 0.728536,-1.6392 2.246321,0.12142 1.639207,0.24284 0.667825,-3.46054 2.064186,-2.73202 3.521263,2.97486 1.88205,1.45707 3.46055,4.37122 2.79272,1.15352 2.42845,2.73201 6.3747,0.84996 3.15699,1.51778 1.27494,2.24632 2.54987,0.42498 1.45708,1.51779 2.73201,-0.0607 1.15351,0.66782 4.37122,0.18213 3.58197,-0.12142 1.0321,2.06419 1.0928,1.88205 3.27842,-0.42498 0.12142,2.97486 1.51778,0.78925 1.0321,1.76063 1.21422,2.36774 0.12143,2.42845 0.66782,2.79273 0.24285,2.30703 0.66782,2.42845 z"
       style="opacity:1;vector-effect:none;fill:#e0e0e0;fill-opacity:1;stroke:none;stroke-width:0.79374999;stroke-linecap:butt;stroke-linejoin:miter;stroke-miterlimit:4;stroke-dasharray:none;stroke-dashoffset:0;stroke-opacity:1" />
    <path
       style="opacity:1;vector-effect:none;fill:#e0e0e0;fill-opacity:1;stroke:#040404;stroke-width:0.79374999;stroke-linecap:butt;stroke-linejoin:miter;stroke-miterlimit:4;stroke-dasharray:none;stroke-dashoffset:0;stroke-opacity:1"
       d="m 48.872647,236.6529 1.27494,0.30356 1.639208,-0.97139 1.032092,2.06419 0.667826,-0.42498 v -1.27494 l 1.032092,-1.39636 0.424979,-1.33565 -0.546401,-1.15351 -1.27494,-1.27494 -1.335648,-0.0607 -1.396363,-0.24284 -0.97138,-1.0928 -0.303557,1.33564 -1.153517,0.60712 -0.849958,-0.42498 -0.121423,1.15352 0.789247,1.27493 -0.182134,2.24632 z"
       id="path6079"
       inkscape:connector-curvature="0" />
    <path
       style="opacity:1;vector-effect:none;fill:none;fill-opacity:1;stroke:#000000;stroke-width:0.79374999;stroke-linecap:butt;stroke-linejoin:miter;stroke-miterlimit:4;stroke-dasharray:none;stroke-dashoffset:0;stroke-opacity:1"
       d="m 80.92825,252.98426 2.246321,0.24285 2.003475,-0.12143 2.185609,-0.97138 2.974857,0.0607 0.728536,-1.6392 2.246321,0.12142 1.639207,0.24284 0.667825,-3.46054 2.064186,-2.73202 3.521263,2.97486 1.88205,1.45707 3.46055,4.37122 2.79272,1.15352 2.42845,2.73201 6.3747,0.84996 3.15699,1.51778 1.27494,2.24632 2.54987,0.42498 1.45708,1.51779 2.73201,-0.0607 1.15351,0.66782 4.37122,0.18213 3.58197,-0.12142 1.0321,2.06419 1.0928,1.88205 3.27842,-0.42498 0.12142,2.97486 1.51778,0.78925 1.0321,1.76063 1.21422,2.36774 0.12143,2.42845 0.66782,2.79273 0.24285,2.30703 0.66782,2.42845 m 9.16742,2.1249 3.88552,-0.78925 1.0321,-0.60711 1.03209,0.72854 2.6713,0.72853 2.48917,-1.27494 1.0928,0.18214 1.27494,1.82134 2.48917,1.27494 0.66782,5.52473 2.30703,4.85691 -0.91067,5.28189 -2.6713,3.64268 -1.94276,3.52126 -1.94277,5.22118 -3.03556,4.61406 -1.45708,3.09628 -2.18561,1.76063 -2.12489,3.27841 -0.24285,1.76063 -2.06418,2.97486 -0.84996,4.85691 -3.03557,1.03209 -3.15699,0.48569 -2.85344,1.15352 -1.51778,2.42846 0.24284,2.85343 -0.48569,2.42845 -0.84996,1.82134 -1.51778,1.09281 -2.97486,-1.27494 -1.63919,-0.42503 -1.69992,0.72853 -2.24632,-0.54639 -2.00348,-0.60711 -0.24284,-1.94278 0.30355,-1.51779 2.36775,-1.0928 0.24284,-1.76062 -0.97138,-1.15353 -1.88205,0.48569 -0.97139,1.03209 -0.48569,-0.42497 1.09281,-1.33565 -0.36427,-1.5785 0.78925,-2.36773 -0.54641,-2.00348 h 1.0321 l 1.15352,-1.09281 -0.66784,-3.58195 -1.57849,0.84995 -0.24284,1.5785 -1.39636,-0.72856 0.66782,-1.88203 -1.21423,-0.24286 -0.42498,1.82134 0.48569,1.03211 -1.57849,0.30356 0.24285,-0.84998 -0.72854,-0.97136 0.12142,-1.21423 -2.06418,-0.66783 -0.66783,1.1535 0.78925,1.45709 -2.36774,-0.72853 -2.73202,-0.30356 -0.84995,0.91067 -1.76063,-0.0607 -1.69992,1.09281 -1.27494,0.0607 -0.48569,1.15353 v 2.42845 l -0.84996,0.84995 -2.42846,-0.0607 -1.76063,1.51778 -0.12142,1.69992 -1.0928,1.6392 -4.43193,1.21423 -2.18561,-1.33565 -1.76063,0.18214 -2.42846,0.78925 -2.853436,-0.91069 -2.185609,-1.57848 -0.182134,-1.5785 -0.303556,-1.69993 -0.485691,-2.61059 -0.789247,-2.36773 -0.303559,-2.12489 0.546405,-2.18562 1.578493,1.45706 -0.789247,-3.64268 -1.639207,-3.52126 -0.546402,-2.12489 0.06071,-1.69992 1.517784,-0.42498 0.485691,-0.72853 h -1.457074 l -0.667824,-1.03208 0.607113,-2.36776 0.06071,-2.36773 -0.910669,-2.67131 0.607113,-1.57851 1.153517,-2.42845 2.367743,-0.54639 1.821341,-2.00348 2.124898,-1.76061 2.124897,-2.00348 2.24632,-1.09281 0.60711,-1.6392 1.88205,-0.78925 1.69992,-1.94278 0.97138,0.48569 1.0321,0.54642 0.18213,-1.09281 0.24285,-2.24631 -0.66783,-2.0642 -0.36427,-2.67131 -1.6392,0.48569 -1.0321,-0.84995 0.97138,-1.69992 -0.30355,-0.97139 -2.42846,-0.91067 -1.82134,-2.61059 -1.94276,-0.42497 -1.032091,0.0607 -2.428455,-2.00348 -0.789249,0.18214 0.303559,0.54639 -0.728538,0.78925 -2.307032,-1.15353 -1.821341,0.24286 v -1.6392 l -0.91067,-0.60711 -1.942764,-0.36428 -2.367743,-1.6392 -1.335651,1.09281 -1.214225,-0.0607 -0.303557,-0.91067 -1.457074,0.12142 -1.092803,-0.60711 -1.092806,0.54641 -1.274939,-0.78925 -0.546402,0.72853 -2.124898,-0.48569 -0.121422,-1.76062 -1.639208,-1.15353 c 0,0 -1.153514,0.60711 -1.39636,0.78925 -0.242845,0.18214 0.182134,1.1535 0.182134,1.1535 l 0.06071,1.15353 -2.064187,-0.72853 -1.821341,0.78926 -0.849958,-0.84998 0.546401,-2.61059 c 0,0 -1.092806,-2.18562 -1.214228,-2.54987 -0.121423,-0.36428 0.910672,-1.15353 0.910672,-1.15353 l -0.728538,-1.82134 -2.732011,0.18214 -0.546402,0.84998 0.06071,0.91067 1.092803,0.72853 1.153517,0.97136 -0.546402,1.03211 -1.882052,-0.24286 -1.335651,-0.72853 -0.91067,1.21423 0.182134,1.09281 -1.153517,0.60711 -0.303557,1.76062 -1.578493,1.33567 -2.064187,-0.12142 -0.546404,1.51778 0.910672,0.97137 1.032092,1.94278 -1.214226,0.72853 -0.303556,-1.33564 -1.214229,-0.84998 -2.671299,-1.33564 -1.153517,-1.21423 -0.91067,0.91067 -1.942764,0.42498 -0.121422,-1.45706 -0.910672,-1.03212 -0.728536,1.15353 0.971384,2.91415 0.97138,2.48915 -2.489165,-1.21423 -3.278415,-2.7927 -7.042518,-2.79273 -6.010426,-2.30704 2.246321,-2.42845 0.971383,-1.21422 v -2.67132 l -2.124898,-0.12141 -0.910672,-0.72853 -0.364268,-1.21423 -1.274937,0.60711 -1.335651,-0.54641 -0.06071,-1.69991 1.639207,-0.36427 0.728536,-1.0928 -0.789247,-0.72854 0.182134,-1.69992 1.214226,-0.60711 1.032094,-1.39637 -0.364267,-2.12489 0.182134,-3.27842 1.76063,-0.5464 1.699916,-0.84996 0.728538,-1.69991 1.153514,-0.54641 0.303557,-1.21422 0.789249,-1.76063 2.246321,-0.0607 0.48569,-1.94276 1.092803,-0.5464 0.485693,-0.97138 -1.76063,-0.60712 -0.06071,-2.54987 0.971381,-1.09281 1.517784,0.36427 1.578497,-0.0607 0.607113,-0.78925 1.882052,-1.57848 1.396362,1.88204 1.396361,1.33565 0.121423,1.0928 -0.607114,1.27494 -1.457072,0.24285 -0.546403,0.60711 2.367744,1.39636 0.485691,1.33565 1.457072,0.91067 2.307032,1.0321 -0.485691,0.60711 -2.124897,0.66783 0.424979,1.94276 0.242846,2.24632 0.971381,0.42498 1.092805,-0.42498 1.882052,0.24285 c 0,0 1.214228,1.15351 1.396362,1.39636 0.182134,0.24284 2.6713,0.5464 2.6713,0.5464 l 2.003475,-0.0607 2.003475,-0.72854"
       id="path6081"
       inkscape:connector-curvature="0"
       sodipodi:nodetypes="ccccccccccccccccccccccccccccccccccccccccccccccccccccccccccccccccccccccccccccccccccccccccccccccccccccccccccccccccccccccccccccccccccccccccccccccccccccccccccccccccccccccccccccccccccccccccccccccccccccccccccccccccccccccccccccccccccccccccccccccccccccccccccccccccccccccccccccccccccccccc" />
    <path
       style="opacity:1;vector-effect:none;fill:none;fill-opacity:1;stroke:#ffffff;stroke-width:0.79374999;stroke-linecap:butt;stroke-linejoin:miter;stroke-miterlimit:4;stroke-dasharray:none;stroke-dashoffset:0;stroke-opacity:1"
       d="m 107.21627,293.05377 1.27494,0.54639 0.12142,0.78925 -0.48569,0.4857 -0.91067,-0.24287 -0.66782,-1.27492 z"
       id="path6085"
       inkscape:connector-curvature="0" />
    <path
       style="opacity:1;vector-effect:none;fill:none;fill-opacity:1;stroke:#000000;stroke-width:0.79374999;stroke-linecap:butt;stroke-linejoin:miter;stroke-miterlimit:4;stroke-dasharray:none;stroke-dashoffset:0;stroke-opacity:1"
       d="m 159.97445,346.35834 -3.7034,-0.42498 -2.54987,-0.84997 -2.97486,0.36428 1.88205,1.45706 -2.85343,0.24286 c 0,0 -0.36427,1.82134 -0.36427,2.06417 0,0.24286 -0.24285,2.67132 -0.24285,2.67132 l -0.78925,2.61059 -2.06418,1.09281 -1.82134,0.54639 -2.61059,-0.36428 1.51778,2.00348 -2.12489,0.66783"
       id="path6083"
       inkscape:connector-curvature="0" />
    <path
       style="opacity:1;vector-effect:none;fill:#e0e0e0;fill-opacity:1;stroke:#000000;stroke-width:0.79374999;stroke-linecap:butt;stroke-linejoin:miter;stroke-miterlimit:4;stroke-dasharray:none;stroke-dashoffset:0;stroke-opacity:1"
       d="m 59.113808,225.6513 -0.300506,1.03031 -1.244951,0.94445 0.214645,1.0303 -0.601011,1.24496 -0.601012,0.47222 -1.717177,0.3005 0.257577,1.33082 c 0,0 0.558083,0.98737 0.7298,0.94445 0.171717,-0.0429 3.219707,-0.51516 3.219707,-0.51516 l 0.64394,0.47223 1.116166,0.34343 1.4596,-0.47222 1.073235,0.68687 1.803035,-0.60101 -0.04293,-1.28789 1.116163,-1.0303 -0.128786,-1.33081 1.502529,-0.90152 1.888895,0.68687 1.073235,-0.12879 1.030306,0.12879 0.64394,-0.60101 -0.515152,-0.64394 0.343435,-0.81566 -0.386363,-0.25758 0.7298,-0.17172 0.686869,-0.38636 -0.343435,-1.1591 0.343435,-1.0303 -1.030306,-0.51516 -1.717175,0.38637 -1.54546,-0.60101 -0.472223,-1.20203 -0.944449,-0.51515 -2.060612,-0.60101 -1.974752,-0.51516 -1.888895,0.30051 -1.330812,0.12879 -0.858589,1.67425 -0.343434,1.84596 z"
       id="path6091"
       inkscape:connector-curvature="0" />
    <path
       style="opacity:1;vector-effect:none;fill:#e0e0e0;fill-opacity:1;stroke:#030303;stroke-width:0.79374999;stroke-linecap:butt;stroke-linejoin:miter;stroke-miterlimit:4;stroke-dasharray:none;stroke-dashoffset:0;stroke-opacity:1"
       d="m 74.096175,231.57556 1.159095,-0.85858 0.772729,-1.33082 0.128788,-1.67424 -0.472223,-1.1591 -1.030306,-0.47222 -0.601011,-0.4293 0.08586,1.07324 0.772729,1.11616 -0.472223,1.11617 0.04293,0.90152 -1.54546,0.55808 -0.729801,0.7298 -0.300505,1.11616 1.202023,0.30051 z"
       id="path6093"
       inkscape:connector-curvature="0" />
    <path
       style="opacity:1;vector-effect:none;fill:none;fill-opacity:1;stroke:#000000;stroke-width:0.79374999;stroke-linecap:butt;stroke-linejoin:miter;stroke-miterlimit:4;stroke-dasharray:none;stroke-dashoffset:0;stroke-opacity:1"
       d="m 55.507736,220.2422 1.674249,0.90152 0.686871,1.37374 -0.686871,0.55808 -1.159095,0.34343 -0.558083,1.58839 -0.429294,0.81566 -1.073235,0.98738 -1.159094,-0.12879 -2.23233,-0.34344 -0.04293,-1.20202 0.04293,-0.77273"
       id="path6095"
       inkscape:connector-curvature="0" />
    <path
       sodipodi:nodetypes="ccccccccccccccccccccccccccccccccccccccccccccccccccccccccccccccccccccccccccccccccsccccccccccccccccccccccccccccccccccccccccccccccccc"
       inkscape:connector-curvature="0"
       d="m -52.879597,81.778208 1.092803,-1.032094 0.971384,-3.15699 -0.182134,-2.549879 3.581969,-1.153515 1.274939,-2.307032 c 0,0 0.242846,-2.489165 0.364268,-2.914147 0.121423,-0.424979 1.396362,-0.789247 1.396362,-0.789247 l 0.182134,-2.367743 -0.121422,-3.946239 0.97138,-0.607113 -0.364267,-2.185609 -2.307032,-4.249796 0.06071,-0.728535 -1.578496,-1.76063 -3.642683,-1.882053 -0.424979,-4.00695 1.457074,-1.639208 0.424979,-4.128373 2.24632,-1.639205 0.424979,-3.52126 0.849961,-3.339124 1.942764,-1.578496 0.607113,-2.610588 -3.339126,0.182134 -2.064187,-3.642683 -0.849958,-2.428454 -2.428454,-1.153516 0.424979,-3.581971 -0.364268,-2.124897 0.971381,-2.853435 -2.185609,-4.7354861 -0.364268,-4.1283728 -0.364268,-2.0641865 3.096279,-0.84995909 1.699918,0.60711365 1.032095,-0.66782501 -1.153517,-1.39636135 -3.035567,-0.7285364 1.335648,-3.7033933 0.242848,-3.4605478 0.242845,-2.0034753 2.367743,-4.00695 4.249796,-0.121423 2.307031,-2.428454 4.735486,-0.06071 v 3.278413 l 3.885528,0.971382 0.667824,1.821341 2.307032,2.6105886 2.914145,4.796198 1.396362,3.1569909 3.217703,0.30355682 1.214227,2.06418638 2.792723,0.2428455 2.549877,-1.88205234 0.667825,-1.45707276 2.185609,-0.5464023 2.610589,-2.4891659 0.121422,-2.2463206 -0.48569,-3.2784133 -2.914146,-0.485691 c 0,0 -1.33565,-2.367744 -1.457073,-2.914146 l -2.52381,-39.15399 3.434354,1.202024 5.1515298,0.171717 3.0050593,1.202024 4.1212241,-0.257576 4.5505184,1.373741 2.7474828,1.631318 4.2070829,-0.944447 3.8636477,-2.919201 3.434353,-1.974753 2.23233,4.378801 1.888895,0.171717 1.974753,1.888895 1.717177,5.065671 2.318188,3.348495 1.467975,4.537968 c 0.121423,0.364268 3.521261,10.19951 3.521261,10.19951 0,0 4.12837,10.381643 4.12837,10.745911 0,0.364268 1.032095,10.6852005 1.032095,10.6852005 l -1.699919,4.492641 -4.431928,7.3460752 -5.221178,8.8031473 2.064186,3.946239 -3.581972,3.764103 1.882053,3.03557 0.823835,4.564129 -3.408599,-0.45141 0.561473,3.574809 1.841158,2.876251 -1.639207,2.428453 -5.839628,1.189015 H 12.53539 l -6.0101184,-3.434353 -5.83840091,-0.858589 -3.94950649,1.717177 -5.1515302,0.171718 -1.888894,4.464659 -3.949507,1.717177 -0.515153,5.666683 -2.747483,3.777789 -0.515153,4.121224 -4.979812,2.747483 -2.575765,4.121224 -3.434354,3.949507 -1.373741,3.777788 -7.555578,1.888895 0.343436,2.23233 2.9192,-0.515153 2.575765,3.090918 0.858589,4.636377 1.373741,3.090918 -1.67125,4.937566 -0.20691,1.407288 2.446089,2.627282 -2.174304,1.540133 -1.902514,-1.540133 -1.087152,1.087151 1.177749,2.989672 -3.533242,1.9931 -0.181192,-2.62727 v -3.080271 l -2.264899,0.181192 -1.087152,1.993119 -2.899068,3.08026 -3.17086,3.53323 -2.444205,2.40586 z"
       style="opacity:1;vector-effect:none;fill:#e0e0e0;fill-opacity:1;stroke:none;stroke-width:0.79374999;stroke-linecap:butt;stroke-linejoin:miter;stroke-miterlimit:4;stroke-dasharray:none;stroke-dashoffset:0;stroke-opacity:1"
       id="path1199" />
    <path
       style="opacity:1;vector-effect:none;fill:#e0e0e0;fill-opacity:1;stroke:#000000;stroke-width:0.85097671;stroke-linecap:butt;stroke-linejoin:miter;stroke-miterlimit:4;stroke-dasharray:none;stroke-dashoffset:0;stroke-opacity:1"
       d="m 26.121219,108.37544 3.313763,4.14219 5.338841,3.03762 3.774009,6.81162 1.564832,5.0627 0.184097,3.95811 -2.945567,2.39326 -3.774009,3.58992 -1.380735,3.40581 -4.326301,1.19663 0.736394,1.38074 -2.853518,0.5523 -0.736394,-1.47279 -7.363917,-2.20919 -6.443428,0.18411 -4.878595,-2.76146 -5.4308895,-0.9205 -5.4308893,-1.47278 -3.9581058,-4.6945 -4.3263014,-0.64435 -1.288687,-3.4058 -4.510399,-4.41836 -1.84098,-5.33883 0.460246,-4.23426 0.82844,-8.56056 1.196636,-4.418341 -0.09205,-6.351379 1.288685,-2.301225 0.552294,-3.405813 -0.276147,-3.958106 3.58991,-0.73639 4.0501556,-4.050155 0.6443427,-5.246791 0.4602451,-3.589911 2.66942,-2.301225 3.405812,1.472786 4.0501548,-0.736394 1.3807345,1.748931 2.1171266,5.891133 2.8535172,1.01254 5.0626935,-0.276147 1.196637,2.853518 3.774007,2.025077 2.393274,0.920491 1.380734,4.3263 -1.012539,4.234253 -1.656881,1.933028 -0.736392,2.577373 -2.301224,-1.196638 -2.393274,-2.57737 -2.301223,0.09205 -1.748932,0.644343 -0.7363905,4.878596 -0.09205,2.761466 -3.4058117,0.1841 0.2761471,1.74893 2.6694206,1.01254 0.368195,1.93303 2.8535175,0.36818 2.853519,-1.47278 4.418351,-0.46024 2.57737,2.76147 z"
       id="path6099"
       inkscape:connector-curvature="0" />
    <path
       style="opacity:1;vector-effect:none;fill:#e0e0e0;fill-opacity:1;stroke:#000000;stroke-width:0.80898649;stroke-linecap:butt;stroke-linejoin:miter;stroke-miterlimit:4;stroke-dasharray:none;stroke-dashoffset:0;stroke-opacity:1"
       d="m 89.056137,134.3901 2.975237,-0.96257 -0.08751,-2.10017 3.15025,-1.57513 1.575126,-2.88773 -0.525042,-5.42543 -3.325264,-4.11282 -6.125486,-1.40011 -4.812882,-0.35003 -6.913048,-3.93782 -3.846934,-1.37706 -4.696517,0.83366 -5.934546,-2.0106 -3.898462,0.19131 -4.637868,2.62522 0.787564,3.7628 1.400111,6.65052 2.712714,1.3126 1.925153,4.46287 2.975237,0.26251 2.100167,5.25042 3.67529,1.66263 c 0,0 2.27518,0.96258 2.362688,1.3126 0.08751,0.35004 2.450193,3.15026 2.450193,3.15026 l 4.90039,1.13758 6.913049,-1.57512 2.450193,-2.62521 z"
       id="path6097"
       inkscape:connector-curvature="0"
       sodipodi:nodetypes="cccccccccccccccccccccccccccc" />
    <path
       style="opacity:1;vector-effect:none;fill:#e0e0e0;fill-opacity:1;stroke:#020202;stroke-width:0.79374999;stroke-linecap:butt;stroke-linejoin:miter;stroke-miterlimit:4;stroke-dasharray:none;stroke-dashoffset:0;stroke-opacity:1"
       d="m -48.789075,114.84446 1.811919,0.63417 0.543575,2.53668 -0.90596,4.80159 -2.627282,1.72133 -2.355494,2.62727 0.724768,2.80848 -0.996557,2.2649 -6.160522,0.27178 -4.982777,-3.62383 c 0,0 -1.201038,-5.38353 -1.201038,-5.74592 l 4.829851,-3.64524 c 0.368713,-0.27828 5.788719,-2.60843 5.788719,-2.60843 z"
       id="path6105"
       inkscape:connector-curvature="0" />
    <path
       id="path6107"
       style="opacity:1;vector-effect:none;fill:none;fill-opacity:1;stroke:#000000;stroke-width:0.79374999;stroke-linecap:butt;stroke-linejoin:miter;stroke-miterlimit:4;stroke-dasharray:none;stroke-dashoffset:0;stroke-opacity:1"
       d="m -15.420687,-13.720769 c 0.121423,0.546402 1.457073,2.914146 1.457073,2.914146 l 2.914146,0.485691 0.48569,3.2784133 -0.121422,2.2463206 -2.610589,2.4891659 -2.185609,0.5464023 -0.667825,1.45707276 -2.549877,1.88205234 -2.792723,-0.2428455 -1.214227,-2.06418638 -3.217703,-0.30355682 -1.396362,-3.1569909 -2.914145,-4.796198 -2.307032,-2.6105886 -0.667824,-1.821341 -3.885528,-0.971382 v -3.278413 l -4.735486,0.06071 -2.307031,2.428454 -4.249796,0.121423 -2.367743,4.00695 -0.242845,2.0034753 -0.242848,3.4605478 -1.335648,3.7033933 3.035567,0.7285364 1.153517,1.39636135 -1.032095,0.66782501 -1.699918,-0.60711365 -3.096279,0.84995909 0.364268,2.0641865 0.364268,4.1283728 2.185609,4.7354861 -0.971381,2.853435 0.364268,2.124897 -0.424979,3.581971 2.428454,1.153516 0.849958,2.428454 2.064187,3.642683 3.339126,-0.182134 -0.607113,2.610588 -1.942764,1.578496 -0.849961,3.339124 -0.424979,3.52126 -2.24632,1.639205 -0.424979,4.128373 -1.457074,1.639208 0.424979,4.00695 3.642683,1.882053 1.578496,1.76063 -0.06071,0.728535 2.307032,4.249796 0.364267,2.185609 -0.97138,0.607113 0.121422,3.946239 -0.182134,2.367743 c 0,0 -1.274939,0.364268 -1.396362,0.789247 -0.121422,0.424982 -0.364268,2.914147 -0.364268,2.914147 l -1.274939,2.307032 -3.581969,1.153515 0.182134,2.549879 -0.971384,3.15699 -1.092803,1.032094 m 34.9351,-134.652967 3.434354,1.202024 5.1515298,0.171717 3.0050593,1.202024 4.1212241,-0.257576 4.5505184,1.373741 2.7474828,1.631318 4.2070829,-0.944447 3.8636477,-2.919201 3.434353,-1.974753 2.23233,4.378801 1.888895,0.171717 1.974753,1.888895 1.717177,5.065671 2.318188,3.348495 1.467975,4.537968 c 0.121423,0.364268 3.521261,10.19951 3.521261,10.19951 0,0 4.12837,10.381643 4.12837,10.745911 0,0.364268 1.032095,10.6852005 1.032095,10.6852005 l -1.699919,4.492641 -4.431928,7.3460752 -5.221178,8.8031473 2.064186,3.946239 -3.581972,3.764103 1.882053,3.03557 0.823835,4.564129 -3.408599,-0.45141 0.561473,3.574809 1.841158,2.876251 -1.639207,2.428453 -5.839628,1.189015 H 12.53539 l -6.0101184,-3.434353 -5.83840091,-0.858589 -3.94950649,1.717177 -5.1515302,0.171718 -1.888894,4.464659 -3.949507,1.717177 -0.515153,5.666683 -2.747483,3.777789 -0.515153,4.121224 -4.979812,2.747483 -2.575765,4.121224 -3.434354,3.949507 -1.373741,3.777788 -7.555578,1.888895 0.343436,2.23233 2.9192,-0.515153 2.575765,3.090918 0.858589,4.636377 1.373741,3.090918 -1.67125,4.937566 -0.20691,1.407288 2.446089,2.627282 -2.174304,1.540133 -1.902514,-1.540133 -1.087152,1.087151 1.177749,2.989672 -3.533242,1.9931 -0.181192,-2.62727 v -3.080271 l -2.264899,0.181192 -1.087152,1.993119 -2.899068,3.08026 -3.17086,3.53323 -2.444205,2.40586"
       inkscape:connector-curvature="0"
       sodipodi:nodetypes="ccccccccccccccccccccccccccccccccccccccccccccccccccccccccccccccccccccccccccccccccscccccccccccccccccccccccccccccccccccccccccccccccc" />
    <path
       style="opacity:1;vector-effect:none;fill:none;fill-opacity:1;stroke:#000000;stroke-width:0.79374999;stroke-linecap:butt;stroke-linejoin:miter;stroke-miterlimit:4;stroke-dasharray:none;stroke-dashoffset:0;stroke-opacity:1"
       d="m 56.623902,249.8635 -1.287883,-0.17172 0.01652,0.69855 0.73322,0.53078 0.653464,-0.62095 z"
       id="path6109"
       inkscape:connector-curvature="0"
       sodipodi:nodetypes="cccccc" />
    <text
       xml:space="preserve"
       style="font-style:normal;font-variant:normal;font-weight:normal;font-stretch:normal;font-size:10.58333302px;line-height:1.25;font-family:Lato;-inkscape-font-specification:Lato;text-align:center;letter-spacing:0px;word-spacing:0px;text-anchor:middle;fill:#000000;fill-opacity:1;stroke:none;stroke-width:0.26458332"
       x="-66.398438"
       y="138.85985"
       id="text6113"><tspan
         sodipodi:role="line"
         id="tspan6111"
         x="-66.398438"
         y="138.85985"
         style="font-style:normal;font-variant:normal;font-weight:normal;font-stretch:normal;font-size:7.05555534px;font-family:Norse;-inkscape-font-specification:Norse;stroke-width:0.26458332">Refuge Island</tspan></text>
    <text
       xml:space="preserve"
       style="font-style:normal;font-variant:normal;font-weight:normal;font-stretch:normal;font-size:10.58333302px;line-height:1.25;font-family:Lato;-inkscape-font-specification:Lato;text-align:center;letter-spacing:0px;word-spacing:0px;text-anchor:middle;display:inline;fill:#000000;fill-opacity:1;stroke:none;stroke-width:0.26458332"
       x="18.302574"
       y="112.26889"
       id="text6113-1"><tspan
         sodipodi:role="line"
         id="tspan6111-2"
         x="18.302574"
         y="112.26889"
         style="font-style:normal;font-variant:normal;font-weight:bold;font-stretch:normal;font-size:3.52777767px;font-family:Norse;-inkscape-font-specification:'Norse Bold';stroke-width:0.26458332">Pig's Landing</tspan></text>
    <text
       xml:space="preserve"
       style="font-style:normal;font-variant:normal;font-weight:normal;font-stretch:normal;font-size:10.58333302px;line-height:1.25;font-family:Lato;-inkscape-font-specification:Lato;text-align:center;letter-spacing:0px;word-spacing:0px;text-anchor:middle;display:inline;fill:#000000;fill-opacity:1;stroke:none;stroke-width:0.26458332"
       x="80.902069"
       y="66.51799"
       id="text6113-1-5"><tspan
         sodipodi:role="line"
         id="tspan6111-2-3"
         x="80.902069"
         y="66.51799"
         style="font-style:normal;font-variant:normal;font-weight:bold;font-stretch:normal;font-size:3.52777767px;font-family:Norse;-inkscape-font-specification:'Norse Bold';stroke-width:0.26458332">Thingstead</tspan></text>
    <circle
       style="display:inline;opacity:1;fill:#000000;fill-opacity:1;stroke:none;stroke-width:0.21166667;stroke-miterlimit:4;stroke-dasharray:none;stroke-opacity:1;paint-order:markers fill stroke"
       id="path6143-9"
       cx="89.121475"
       cy="68.443779"
       r="1.6392069" />
    <circle
       style="display:inline;opacity:1;fill:#000000;fill-opacity:1;stroke:none;stroke-width:0.21166667;stroke-miterlimit:4;stroke-dasharray:none;stroke-opacity:1;paint-order:markers fill stroke"
       id="path6143-1"
       cx="111.53063"
       cy="81.837753"
       r="1.6392069" />
    <path
       sodipodi:type="star"
       style="opacity:1;fill:#000000;fill-opacity:1;stroke:none;stroke-width:0.21166667;stroke-miterlimit:4;stroke-dasharray:none;stroke-opacity:1;paint-order:markers fill stroke"
       id="path6211"
       sodipodi:sides="4"
       sodipodi:cx="74.525467"
       sodipodi:cy="80.979164"
       sodipodi:r1="2.2323296"
       sodipodi:r2="1.1161649"
       sodipodi:arg1="1.5707963"
       sodipodi:arg2="2.3561945"
       inkscape:flatsided="false"
       inkscape:rounded="0"
       inkscape:randomized="0"
       d="m 74.525467,83.211494 -0.789248,-1.443082 -1.443082,-0.789248 1.443082,-0.789248 0.789248,-1.443081 0.789248,1.443081 1.443082,0.789248 -1.443082,0.789248 z"
       inkscape:transform-center-y="-1.0007396e-06" />
    <path
       sodipodi:type="star"
       style="display:inline;opacity:1;fill:#000000;fill-opacity:1;stroke:none;stroke-width:0.21166667;stroke-miterlimit:4;stroke-dasharray:none;stroke-opacity:1;paint-order:markers fill stroke"
       id="path6211-8"
       sodipodi:sides="4"
       sodipodi:cx="108.869"
       sodipodi:cy="103.47418"
       sodipodi:r1="2.2323296"
       sodipodi:r2="1.1161649"
       sodipodi:arg1="1.5707963"
       sodipodi:arg2="2.3561945"
       inkscape:flatsided="false"
       inkscape:rounded="0"
       inkscape:randomized="0"
       d="m 108.869,105.70651 -0.78924,-1.44308 -1.44309,-0.78925 1.44309,-0.78925 0.78924,-1.44308 0.78925,1.44308 1.44308,0.78925 -1.44308,0.78925 z"
       inkscape:transform-center-y="-1.0007396e-06" />
    <path
       sodipodi:type="star"
       style="display:inline;opacity:1;fill:#000000;fill-opacity:1;stroke:none;stroke-width:0.21166667;stroke-miterlimit:4;stroke-dasharray:none;stroke-opacity:1;paint-order:markers fill stroke"
       id="path6211-87"
       sodipodi:sides="4"
       sodipodi:cx="55.979961"
       sodipodi:cy="249.94936"
       sodipodi:r1="2.2323296"
       sodipodi:r2="1.1161649"
       sodipodi:arg1="1.5707963"
       sodipodi:arg2="2.3561945"
       inkscape:flatsided="false"
       inkscape:rounded="0"
       inkscape:randomized="0"
       d="m 55.979961,252.18169 -0.789247,-1.44309 -1.443082,-0.78924 1.443082,-0.78925 0.789247,-1.44308 0.789248,1.44308 1.443082,0.78925 -1.443082,0.78924 z"
       inkscape:transform-center-y="-1.0007396e-06" />
    <text
       xml:space="preserve"
       style="font-style:normal;font-variant:normal;font-weight:normal;font-stretch:normal;font-size:10.58333302px;line-height:1.25;font-family:Lato;-inkscape-font-specification:Lato;text-align:center;letter-spacing:0px;word-spacing:0px;text-anchor:middle;display:inline;fill:#000000;fill-opacity:1;stroke:none;stroke-width:0.26458332"
       x="116.23212"
       y="102.16766"
       id="text6113-1-5-0"><tspan
         sodipodi:role="line"
         id="tspan6111-2-3-5"
         x="116.23212"
         y="102.16766"
         style="font-style:normal;font-variant:normal;font-weight:bold;font-stretch:normal;font-size:3.52777767px;font-family:Norse;-inkscape-font-specification:'Norse Bold';stroke-width:0.26458332">Forsaken</tspan></text>
    <text
       xml:space="preserve"
       style="font-style:normal;font-variant:normal;font-weight:normal;font-stretch:normal;font-size:10.58333302px;line-height:1.25;font-family:Lato;-inkscape-font-specification:Lato;text-align:center;letter-spacing:0px;word-spacing:0px;text-anchor:middle;display:inline;fill:#000000;fill-opacity:1;stroke:none;stroke-width:0.26458332"
       x="62.312843"
       y="249.48834"
       id="text6113-1-5-0-2"><tspan
         sodipodi:role="line"
         id="tspan6111-2-3-5-7"
         x="62.312843"
         y="249.48834"
         style="font-style:normal;font-variant:normal;font-weight:bold;font-stretch:normal;font-size:3.52777767px;font-family:Norse;-inkscape-font-specification:'Norse Bold';stroke-width:0.26458332">Elder</tspan></text>
    <circle
       style="opacity:1;fill:none;fill-opacity:1;stroke:#000000;stroke-width:0.68145943;stroke-miterlimit:4;stroke-dasharray:none;stroke-opacity:1;paint-order:markers fill stroke"
       id="path6280"
       cx="40.139008"
       cy="248.79025"
       r="1.4042236" />
    <text
       xml:space="preserve"
       style="font-style:normal;font-variant:normal;font-weight:normal;font-stretch:normal;font-size:10.58333302px;line-height:1.25;font-family:Lato;-inkscape-font-specification:Lato;text-align:center;letter-spacing:0px;word-spacing:0px;text-anchor:middle;display:inline;fill:#000000;fill-opacity:1;stroke:none;stroke-width:0.26458332"
       x="30.439655"
       y="247.26428"
       id="text6113-1-5-0-2-9"><tspan
         sodipodi:role="line"
         id="tspan6111-2-3-5-7-1"
         x="30.439655"
         y="247.26428"
         style="font-style:normal;font-variant:normal;font-weight:bold;font-stretch:normal;font-size:3.52777767px;font-family:Norse;-inkscape-font-specification:'Norse Bold';stroke-width:0.26458332">Theoselk</tspan></text>
    <text
       xml:space="preserve"
       style="font-style:normal;font-variant:normal;font-weight:normal;font-stretch:normal;font-size:10.58333302px;line-height:1.25;font-family:Lato;-inkscape-font-specification:Lato;text-align:center;letter-spacing:0px;word-spacing:0px;text-anchor:middle;display:inline;fill:#000000;fill-opacity:1;stroke:none;stroke-width:0.26458332"
       x="25.756617"
       y="256.09949"
       id="text6113-1-5-0-2-9-9"><tspan
         sodipodi:role="line"
         id="tspan6111-2-3-5-7-1-6"
         x="25.756617"
         y="256.09949"
         style="font-style:normal;font-variant:normal;font-weight:bold;font-stretch:normal;font-size:3.52777767px;font-family:Norse;-inkscape-font-specification:'Norse Bold';stroke-width:0.26458332">Draugr</tspan></text>
    <text
       xml:space="preserve"
       style="font-style:normal;font-variant:normal;font-weight:normal;font-stretch:normal;font-size:10.58333302px;line-height:1.25;font-family:Lato;-inkscape-font-specification:Lato;text-align:center;letter-spacing:0px;word-spacing:0px;text-anchor:middle;display:inline;fill:#000000;fill-opacity:1;stroke:none;stroke-width:0.26458332"
       x="74.171776"
       y="281.02664"
       id="text6113-1-5-0-2-9-9-2"><tspan
         sodipodi:role="line"
         id="tspan6111-2-3-5-7-1-6-7"
         x="74.171776"
         y="281.02664"
         style="font-style:normal;font-variant:normal;font-weight:bold;font-stretch:normal;font-size:3.52777767px;font-family:Norse;-inkscape-font-specification:'Norse Bold';stroke-width:0.26458332">Goblin</tspan></text>
    <text
       xml:space="preserve"
       style="font-style:normal;font-variant:normal;font-weight:normal;font-stretch:normal;font-size:10.58333302px;line-height:1.25;font-family:Lato;-inkscape-font-specification:Lato;text-align:center;letter-spacing:0px;word-spacing:0px;text-anchor:middle;display:inline;fill:#000000;fill-opacity:1;stroke:none;stroke-width:0.26458332"
       x="121.82897"
       y="339.5087"
       id="text6113-1-5-0-2-9-9-2-9"><tspan
         sodipodi:role="line"
         id="tspan6111-2-3-5-7-1-6-7-3"
         x="121.82897"
         y="339.5087"
         style="font-style:normal;font-variant:normal;font-weight:bold;font-stretch:normal;font-size:3.52777767px;font-family:Norse;-inkscape-font-specification:'Norse Bold';stroke-width:0.26458332">Goblin</tspan></text>
    <text
       xml:space="preserve"
       style="font-style:normal;font-variant:normal;font-weight:normal;font-stretch:normal;font-size:10.58333302px;line-height:1.25;font-family:Lato;-inkscape-font-specification:Lato;text-align:center;letter-spacing:0px;word-spacing:0px;text-anchor:middle;display:inline;fill:#000000;fill-opacity:1;stroke:none;stroke-width:0.26458332"
       x="-17.646582"
       y="-55.924347"
       id="text6113-1-5-0-2-9-9-2-2"><tspan
         sodipodi:role="line"
         id="tspan6111-2-3-5-7-1-6-7-2"
         x="-17.646582"
         y="-55.924347"
         style="font-style:normal;font-variant:normal;font-weight:bold;font-stretch:normal;font-size:3.52777767px;font-family:Norse;-inkscape-font-specification:'Norse Bold';stroke-width:0.26458332">Goblin</tspan></text>
    <circle
       style="display:inline;opacity:1;fill:none;fill-opacity:1;stroke:#000000;stroke-width:0.68145943;stroke-miterlimit:4;stroke-dasharray:none;stroke-opacity:1;paint-order:markers fill stroke"
       id="path6280-5"
       cx="17.788429"
       cy="107.15556"
       r="1.4042236" />
    <circle
       style="display:inline;opacity:1;fill:none;fill-opacity:1;stroke:#000000;stroke-width:0.68145943;stroke-miterlimit:4;stroke-dasharray:none;stroke-opacity:1;paint-order:markers fill stroke"
       id="path6280-1"
       cx="-50.511856"
       cy="120.14779"
       r="1.4042236" />
    <text
       xml:space="preserve"
       style="font-style:normal;font-variant:normal;font-weight:normal;font-stretch:normal;font-size:10.58333302px;line-height:1.25;font-family:Lato;-inkscape-font-specification:Lato;text-align:center;letter-spacing:0px;word-spacing:0px;text-anchor:middle;display:inline;fill:#000000;fill-opacity:1;stroke:none;stroke-width:0.26458332"
       x="5.1051903"
       y="126.63243"
       id="text6113-17"><tspan
         sodipodi:role="line"
         id="tspan6111-1"
         x="5.1051903"
         y="126.63243"
         style="font-style:normal;font-variant:normal;font-weight:normal;font-stretch:normal;font-size:7.05555534px;font-family:Norse;-inkscape-font-specification:Norse;stroke-width:0.26458332">PIG Island</tspan></text>
    <text
       xml:space="preserve"
       style="font-style:normal;font-variant:normal;font-weight:normal;font-stretch:normal;font-size:10.58333302px;line-height:1.25;font-family:Lato;-inkscape-font-specification:Lato;text-align:center;letter-spacing:0px;word-spacing:0px;text-anchor:middle;display:inline;fill:#000000;fill-opacity:1;stroke:none;stroke-width:0.26458332"
       x="-14.896429"
       y="19.953041"
       id="text6113-17-1"><tspan
         sodipodi:role="line"
         id="tspan6111-1-1"
         x="-14.896429"
         y="19.953041"
         style="font-style:normal;font-variant:normal;font-weight:normal;font-stretch:normal;font-size:7.05555534px;font-family:Norse;-inkscape-font-specification:Norse;stroke-width:0.26458332">SWAMP Island</tspan></text>
    <text
       xml:space="preserve"
       style="font-style:normal;font-variant:normal;font-weight:normal;font-stretch:normal;font-size:10.58333302px;line-height:1.25;font-family:Lato;-inkscape-font-specification:Lato;text-align:center;letter-spacing:0px;word-spacing:0px;text-anchor:middle;display:inline;fill:#000000;fill-opacity:1;stroke:none;stroke-width:0.26458332"
       x="131.88101"
       y="309.91052"
       id="text6113-17-1-7"><tspan
         sodipodi:role="line"
         id="tspan6111-1-1-0"
         x="131.88101"
         y="309.91052"
         style="font-style:normal;font-variant:normal;font-weight:normal;font-stretch:normal;font-size:7.05555534px;font-family:Norse;-inkscape-font-specification:Norse;stroke-width:0.26458332">THEOSELK Island</tspan></text>
    <text
       xml:space="preserve"
       style="font-style:normal;font-variant:normal;font-weight:normal;font-stretch:normal;font-size:10.58333302px;line-height:1.25;font-family:Lato;-inkscape-font-specification:Lato;text-align:center;letter-spacing:0px;word-spacing:0px;text-anchor:middle;display:inline;fill:#000000;fill-opacity:1;stroke:none;stroke-width:0.26458332"
       x="95.93988"
       y="48.123112"
       id="text6113-17-1-4"><tspan
         sodipodi:role="line"
         id="tspan6111-1-1-08"
         x="95.93988"
         y="48.123112"
         style="font-style:normal;font-variant:normal;font-weight:normal;font-stretch:normal;font-size:7.05555534px;font-family:Norse;-inkscape-font-specification:Norse;stroke-width:0.26458332">MAIN Island</tspan></text>
    <g
       transform="matrix(0.51646053,-0.51646053,0.51646053,0.51646053,-2.7478942,200.46867)"
       id="g6308-3-2-7"
       style="display:inline">
      <path
         style="opacity:1;vector-effect:none;fill:none;fill-opacity:1;stroke:#000000;stroke-width:1.5;stroke-linecap:butt;stroke-linejoin:miter;stroke-miterlimit:4;stroke-dasharray:none;stroke-dashoffset:0;stroke-opacity:1"
         d="m -15.969743,244.19681 h 5.323247"
         id="path6300-6-1-9"
         inkscape:connector-curvature="0" />
      <path
         inkscape:connector-curvature="0"
         id="path6304-8-9-7"
         d="m -13.30812,241.53519 v 5.32324"
         style="opacity:1;vector-effect:none;fill:none;fill-opacity:1;stroke:#000000;stroke-width:1.5;stroke-linecap:butt;stroke-linejoin:miter;stroke-miterlimit:4;stroke-dasharray:none;stroke-dashoffset:0;stroke-opacity:1" />
    </g>
    <g
       transform="matrix(0.51646053,-0.51646053,0.51646053,0.51646053,-44.389431,137.96343)"
       id="g6308-3-2-4"
       style="display:inline">
      <path
         style="opacity:1;vector-effect:none;fill:none;fill-opacity:1;stroke:#000000;stroke-width:1.5;stroke-linecap:butt;stroke-linejoin:miter;stroke-miterlimit:4;stroke-dasharray:none;stroke-dashoffset:0;stroke-opacity:1"
         d="m -15.969743,244.19681 h 5.323247"
         id="path6300-6-1-91"
         inkscape:connector-curvature="0" />
      <path
         inkscape:connector-curvature="0"
         id="path6304-8-9-70"
         d="m -13.30812,241.53519 v 5.32324"
         style="opacity:1;vector-effect:none;fill:none;fill-opacity:1;stroke:#000000;stroke-width:1.5;stroke-linecap:butt;stroke-linejoin:miter;stroke-miterlimit:4;stroke-dasharray:none;stroke-dashoffset:0;stroke-opacity:1" />
    </g>
    <g
       transform="matrix(0.51646053,-0.51646053,0.51646053,0.51646053,-84.485508,122.42298)"
       id="g6308-3-2-6"
       style="display:inline">
      <path
         style="opacity:1;vector-effect:none;fill:none;fill-opacity:1;stroke:#000000;stroke-width:1.5;stroke-linecap:butt;stroke-linejoin:miter;stroke-miterlimit:4;stroke-dasharray:none;stroke-dashoffset:0;stroke-opacity:1"
         d="m -15.969743,244.19681 h 5.323247"
         id="path6300-6-1-0"
         inkscape:connector-curvature="0" />
      <path
         inkscape:connector-curvature="0"
         id="path6304-8-9-8"
         d="m -13.30812,241.53519 v 5.32324"
         style="opacity:1;vector-effect:none;fill:none;fill-opacity:1;stroke:#000000;stroke-width:1.5;stroke-linecap:butt;stroke-linejoin:miter;stroke-miterlimit:4;stroke-dasharray:none;stroke-dashoffset:0;stroke-opacity:1" />
    </g>
    <g
       transform="matrix(0.51646053,-0.51646053,0.51646053,0.51646053,-138.17592,-182.27445)"
       id="g6308-3-2-5"
       style="display:inline">
      <path
         style="opacity:1;vector-effect:none;fill:none;fill-opacity:1;stroke:#000000;stroke-width:1.5;stroke-linecap:butt;stroke-linejoin:miter;stroke-miterlimit:4;stroke-dasharray:none;stroke-dashoffset:0;stroke-opacity:1"
         d="m -15.969743,244.19681 h 5.323247"
         id="path6300-6-1-3"
         inkscape:connector-curvature="0" />
      <path
         inkscape:connector-curvature="0"
         id="path6304-8-9-9"
         d="m -13.30812,241.53519 v 5.32324"
         style="opacity:1;vector-effect:none;fill:none;fill-opacity:1;stroke:#000000;stroke-width:1.5;stroke-linecap:butt;stroke-linejoin:miter;stroke-miterlimit:4;stroke-dasharray:none;stroke-dashoffset:0;stroke-opacity:1" />
    </g>
  </g>
  <g
     inkscape:groupmode="layer"
     id="layer10"
     inkscape:label="Legend"
     transform="translate(-56.323377,-14.424285)">
    <g
       id="g1146"
       transform="translate(-84.485096,-40.525371)">
      <rect
         y="322.55948"
         x="420.9119"
         height="30.416416"
         width="31.387802"
         id="rect1012"
         style="opacity:1;fill:#ffffff;fill-opacity:1;stroke:#000000;stroke-width:1.5;stroke-miterlimit:4;stroke-dasharray:none;stroke-opacity:1;paint-order:markers fill stroke" />
      <circle
         r="1.6392068"
         cy="236.16722"
         cx="257.84119"
         id="path6143"
         style="display:inline;opacity:1;fill:#000000;fill-opacity:1;stroke:none;stroke-width:0.21166667;stroke-miterlimit:4;stroke-dasharray:none;stroke-opacity:1;paint-order:markers fill stroke"
         transform="translate(171.5594,92.874068)" />
      <text
         id="text6113-1-5-5"
         y="237.45486"
         x="264.21713"
         style="font-style:normal;font-variant:normal;font-weight:normal;font-stretch:normal;font-size:10.58333302px;line-height:1.25;font-family:Lato;-inkscape-font-specification:Lato;text-align:center;letter-spacing:0px;word-spacing:0px;text-anchor:middle;display:inline;fill:#000000;fill-opacity:1;stroke:none;stroke-width:0.26458332"
         xml:space="preserve"
         transform="translate(171.5594,92.874068)"><tspan
           style="font-style:normal;font-variant:normal;font-weight:bold;font-stretch:normal;font-size:3.52777767px;font-family:Norse;-inkscape-font-specification:'Norse Bold';stroke-width:0.26458332"
           y="237.45486"
           x="264.21713"
           id="tspan6111-2-3-1"
           sodipodi:role="line">BASE</tspan></text>
      <path
         inkscape:transform-center-y="-1.0007396e-06"
         d="m 257.84119,249.88354 -0.78925,-1.44308 -1.44308,-0.78925 1.44308,-0.78924 0.78925,-1.44309 0.78924,1.44309 1.44309,0.78924 -1.44309,0.78925 z"
         inkscape:randomized="0"
         inkscape:rounded="0"
         inkscape:flatsided="false"
         sodipodi:arg2="2.3561945"
         sodipodi:arg1="1.5707963"
         sodipodi:r2="1.1161649"
         sodipodi:r1="2.2323296"
         sodipodi:cy="247.65121"
         sodipodi:cx="257.84119"
         sodipodi:sides="4"
         id="path6211-6"
         style="display:inline;opacity:1;fill:#000000;fill-opacity:1;stroke:none;stroke-width:0.21166667;stroke-miterlimit:4;stroke-dasharray:none;stroke-opacity:1;paint-order:markers fill stroke"
         sodipodi:type="star"
         transform="translate(171.5594,92.874068)" />
      <circle
         r="1.4042236"
         cy="241.90921"
         cx="257.84119"
         id="path6280-6"
         style="display:inline;opacity:1;fill:none;fill-opacity:1;stroke:#000000;stroke-width:0.68145943;stroke-miterlimit:4;stroke-dasharray:none;stroke-opacity:1;paint-order:markers fill stroke"
         transform="translate(171.5594,92.874068)" />
      <g
         transform="matrix(0.51646053,-0.51646053,0.51646053,0.51646053,310.1557,213.27613)"
         id="g6308-3-2"
         style="display:inline">
        <path
           style="opacity:1;vector-effect:none;fill:none;fill-opacity:1;stroke:#000000;stroke-width:1.5;stroke-linecap:butt;stroke-linejoin:miter;stroke-miterlimit:4;stroke-dasharray:none;stroke-dashoffset:0;stroke-opacity:1"
           d="m -15.969743,244.19681 h 5.323247"
           id="path6300-6-1"
           inkscape:connector-curvature="0" />
        <path
           inkscape:connector-curvature="0"
           id="path6304-8-9"
           d="m -13.30812,241.53519 v 5.32324"
           style="opacity:1;vector-effect:none;fill:none;fill-opacity:1;stroke:#000000;stroke-width:1.5;stroke-linecap:butt;stroke-linejoin:miter;stroke-miterlimit:4;stroke-dasharray:none;stroke-dashoffset:0;stroke-opacity:1" />
      </g>
      <text
         id="text6113-1-5-5-6"
         y="243.21977"
         x="265.60355"
         style="font-style:normal;font-variant:normal;font-weight:normal;font-stretch:normal;font-size:10.58333302px;line-height:1.25;font-family:Lato;-inkscape-font-specification:Lato;text-align:center;letter-spacing:0px;word-spacing:0px;text-anchor:middle;display:inline;fill:#000000;fill-opacity:1;stroke:none;stroke-width:0.26458332"
         xml:space="preserve"
         transform="translate(171.5594,92.874068)"><tspan
           style="font-style:normal;font-variant:normal;font-weight:bold;font-stretch:normal;font-size:3.52777767px;font-family:Norse;-inkscape-font-specification:'Norse Bold';stroke-width:0.26458332"
           y="243.21977"
           x="265.60355"
           id="tspan6111-2-3-1-4"
           sodipodi:role="line">PORTAL</tspan></text>
      <text
         id="text6113-1-5-5-8"
         y="248.93886"
         x="266.41495"
         style="font-style:normal;font-variant:normal;font-weight:normal;font-stretch:normal;font-size:10.58333302px;line-height:1.25;font-family:Lato;-inkscape-font-specification:Lato;text-align:center;letter-spacing:0px;word-spacing:0px;text-anchor:middle;display:inline;fill:#000000;fill-opacity:1;stroke:none;stroke-width:0.26458332"
         xml:space="preserve"
         transform="translate(171.5594,92.874068)"><tspan
           style="font-style:normal;font-variant:normal;font-weight:bold;font-stretch:normal;font-size:3.52777767px;font-family:Norse;-inkscape-font-specification:'Norse Bold';stroke-width:0.26458332"
           y="248.93886"
           x="266.41495"
           id="tspan6111-2-3-1-0"
           sodipodi:role="line">SUMMON</tspan></text>
      <text
         id="text6113-1-5-5-81"
         y="254.68083"
         x="267.95657"
         style="font-style:normal;font-variant:normal;font-weight:normal;font-stretch:normal;font-size:10.58333302px;line-height:1.25;font-family:Lato;-inkscape-font-specification:Lato;text-align:center;letter-spacing:0px;word-spacing:0px;text-anchor:middle;display:inline;fill:#000000;fill-opacity:1;stroke:none;stroke-width:0.26458332"
         xml:space="preserve"
         transform="translate(171.5594,92.874068)"><tspan
           style="font-style:normal;font-variant:normal;font-weight:bold;font-stretch:normal;font-size:3.52777767px;font-family:Norse;-inkscape-font-specification:'Norse Bold';stroke-width:0.26458332"
           y="254.68083"
           x="267.95657"
           id="tspan6111-2-3-1-02"
           sodipodi:role="line">BAD THINGS</tspan></text>
    </g>
  </g>
</svg>
